<svg viewBox="-222 -180 445 360" xmlns="http://www.w3.org/2000/svg">
                <g id="pitch" opacity="1">
                    <g id="football-pitch" opacity="1" transform="matrix(0.86 0 0 0.86 0.45 -4.95)">
                        <path fill="#BCCD9A" d="M-100-63.5h200v127h-200Z"></path>
                        <path fill="none" stroke="#fff" d="M-97.4-60.7H97.4V60.7H-97.4Z"></path>
                        <path fill="none" stroke="gray" d="M-98.8-62.3H98.8V62.3H-98.8Z"></path>
                        <path fill="none" stroke="#fff" d="M18.2 0a18.2 18.2 0 1 1-36.4 0 18.2 18.2 0 0 1 36.4 0Z"></path>
                        <path fill="#fff" stroke="#fff" d="M0-61.75v123.5"></path>
                        <path fill="#fff" stroke="#fff" d="M-97-41.5h40"></path>
                        <path fill="#fff" stroke="#fff" d="M-57-41.5v83"></path>
                        <path fill="#fff" stroke="#fff" d="M-57 41.5h-40"></path>
                        <path fill="#fff" stroke="#fff" d="M-97-20.3h16"></path>
                        <path fill="#fff" stroke="#fff" d="M-81-20.3v40.6"></path>
                        <path fill="#fff" stroke="#fff" d="M-81 20.3h-16"></path>
                        <path fill="#fff" stroke="#fff" d="M97-41.5H57"></path>
                        <path fill="#fff" stroke="#fff" d="M57-41.5v83"></path>
                        <path fill="#fff" stroke="#fff" d="M57 41.5h40"></path>
                        <path fill="#fff" stroke="#fff" d="M97-20.3H81"></path>
                        <path fill="#fff" stroke="#fff" d="M81-20.3v40.6"></path>
                        <path fill="#fff" stroke="#fff" d="M81 20.3h16"></path>
                    </g>
                </g>
                <g id="shapes" opacity="1">
                    <!-- Upper Tier Sections -->
                    <path fill="none" d="M24.2 117.1H.8v40.5c4.2-.2 12.5.1 23.4-1.4z" data-section="longside-upper-tier" data-tags="longside-upper-tier-central"></path>
                    <path fill="none" d="M50.5 117.1H26.9v38.6c6.8-1.1 15.3-2.6 23.8-4.6v-34Z" data-section="longside-upper-tier" data-tags="longside-upper-tier-central"></path>
                    <path fill="none" d="M84 115.5c-5.4 1-11 1.6-16.7 1.6H53.2v33.4c10.6-2.7 23-6.2 35.1-10.9z" data-section="longside-upper-tier"></path>
                    <path fill="none" d="M102.3 109.9c-5.1 2.2-10.3 3.9-15.8 5.1l4.1 23.7c6.9-2.7 13.8-5.8 20.6-9.3z" data-section="longside-upper-tier"></path>
                    <path fill="none" d="M117.6 101.4c-4.1 2.8-8.5 5.3-13 7.5l8.8 19.3c5.4-2.8 10.7-6 15.8-9.3z" data-section="shortside-upper-tier"></path>
                    <path fill="none" d="M130.6 90.4c-3.4 3.5-7.1 6.7-11 9.5l11.6 17.5c5.3-3.6 10.4-7.4 15.4-11.6z" data-section="shortside-upper-tier"></path>
                    <path fill="none" d="M141.5 77c-2.7 4.1-5.8 8-9.1 11.6l16.1 15.6c5-4.4 9.7-9.1 14.2-14.2z" data-section="shortside-upper-tier"></path>
                    <path fill="none" d="M149.6 61.6c-1.9 4.7-4.2 9.1-6.8 13.3l21.5 13.2c4.4-5.3 8.6-10.9 12.3-17z" data-section="shortside-upper-tier"></path>
                    <path fill="none" d="M154.4 45.6c-.9 4.7-2.2 9.3-3.9 13.7L178 69c3.6-6.1 6.9-12.6 9.6-19.6z" data-section="shortside-upper-tier"></path>
                    <path fill="none" d="M156 23.8v4.5c0 5-.4 10-1.2 14.8l33.7 3.8c2.7-7.2 5-14.6 6.7-23.1z" data-section="shortside-upper-tier"></path>
                    <path fill="none" d="M156-3v24.2h39.7c1.4-7.5 1.5-15.9 1.9-24.3z" data-section="shortside-upper-tier"></path>
                    <path fill="none" d="M195.2-29.2H156v23.6h41.7V-7c.1.2.8-8.6-2.5-22.2" data-section="shortside-upper-tier"></path>
                    <path fill="none" d="M154.9-50.3c.6 3.7 1 7.7 1.2 11.4v1h.1c0 1-.1 1.5-.1 2.3v4h38.6c-1.7-6.6-4-13.7-7.3-21.6z" data-section="shortside-upper-tier"></path>
                    <path fill="none" d="M150.2-67.4c1.8 4.7 3.2 9.6 4.2 14.6l31.7-2.9c-2.9-6.6-6.4-13.5-10.8-20.5z" data-section="shortside-upper-tier"></path>
                    <path fill="none" d="M142.9-82.1c2.4 3.9 4.6 8.1 6.4 12.4l24.8-8.6c-3.4-5.3-7.3-10.7-11.7-16z" data-section="shortside-upper-tier"></path>
                    <path fill="none" d="M160.8-96.2c-4.1-4.8-8.8-9.6-13.9-14.3L132.3-96c3.4 3.7 6.5 7.6 9.3 11.8z" data-section="shortside-upper-tier"></path>
                    <path fill="none" d="m119.8-107.2 1.2.9.6.4c3.2 2.5 6.2 5.2 9 8l14.5-14.3c-4.6-4.1-9.5-8-14.9-11.8z" data-section="shortside-upper-tier"></path>
                    <path fill="none" d="M102.4-117.2c5.4 2.3 10.5 5.2 15.3 8.5l10.3-16.8c-5.4-3.7-11.2-7.2-17.5-10.5z" data-section="shortside-upper-tier"></path>
                    <path fill="none" d="M87.5-122.1c2.1285.495 6.45 1.5 12.6 3.9l8.3-19c-5.6-2.9-11.6-5.6-18-8.2z" data-section="longside-upper-tier"></path>
                    <path fill="none" d="M53.3-124.9h14c.4 0 .7.5 1.7.5v-.5h1v.5c3.8.1 10.2.7 15.1 1.7l2.9-23.6c-10.5-4.1-22-7.6-34.7-10.4z" data-section="longside-upper-tier"></path>
                    <path fill="none" d="M26.1-124.9h24.5v-32.3c-7.6-1.7-16.1-3.1-24.6-4.2z" data-section="longside-upper-tier" data-tags="longside-upper-tier-central"></path>
                    <path fill="none" d="M.2-124.9h23.2v-36.8c-7.5-.8-15-.6-23.4-1z" data-section="longside-upper-tier" data-tags="longside-upper-tier-central"></path>
                    <path fill="none" d="M-24.8-124.9h22.5v-37.9H-3c-7.6.4-15.1.1-21.8.8z" data-section="longside-upper-tier" data-tags="longside-upper-tier-central"></path>
                    <path fill="none" d="M-51.8-124.9h24.3v-36.8c-8.8 1.1-16.6 2.4-24.5 4z" data-section="longside-upper-tier" data-tags="longside-upper-tier-central"></path>
                    <path fill="none" d="M-86.6-123.3c3.8-.6 8-1 11.6-1.1v-.5h1v.5c3.6-.1.9-.5 1.3-.5h18.2v-32.2c-12.9 2.7-23.9 6-34.3 9.9z" data-section="longside-upper-tier"></path>
                    <path fill="none" d="M-102.9-119.1c4.4-1.6 9.1-2.9 13.8-3.8l-1.8-21.3-.2-2.2c-7.1 2.7-13.7 5.7-19.9 8.8z" data-section="longside-upper-tier"></path>
                    <path fill="none" d="M-119.8-110.8a87 87 0 0 1 14.6-7.4l-7.9-18.1c-3.0195 1.584-9.15 4.8-17.1 10.2z" data-section="shortside-upper-tier"></path>
                    <path fill="none" d="M-134.1-99.6c3.8-3.6 7.9-6.9 12.2-9.8l-10.4-15.4c-5.5 3.8-10.6 7.8-15.3 11.9z" data-section="shortside-upper-tier"></path>
                    <path fill="none" d="M-145.6-86.1c2.9-4.2 6.1-8.1 9.7-11.7l-13.5-13.4c-5.1 4.6-9.6 9.3-13.8 14z" data-section="shortside-upper-tier"></path>
                    <path fill="none" d="M-154.2-70.6c2-4.7 4.4-9.2 7.2-13.4l-17.9-11.2c-4.7 5.5-8.7 11.1-12.3 16.7z" data-section="shortside-upper-tier"></path>
                    <path fill="none" d="M-159.7-52.8c1.1-5.4 2.6-10.6 4.6-15.6l-23.4-8c-4.3 7-7.8 13.8-10.7 20.3z" data-section="shortside-upper-tier"></path>
                    <path fill="none" d="M-161-31.7v-4c0-.8-.4-1.3-.4-2.3h.4v-1h-.3c.1-3.7.6-7.7 1.2-11.4l-30.1-3.3c-3.4 8-5.8 15.3-7.5 21.9z" data-section="shortside-upper-tier"></path>
                    <path fill="none" d="M-161-9.9V-29h-37.4c-2.3 13.6-2.6 22.3-2.6 22.3v1.4h40Z" data-section="shortside-upper-tier" class="active"></path>
                    <path fill="none" d="M-161 21.3V-3h-39.8c.4 8.4.5 16.8 1.9 24.3z" data-section="shortside-upper-tier"></path>
                    <path fill="none" d="M-160 43.1c-.8-4.8-1-9.7-1-14.8v-4.5h-37.4c1.7 8.4 4 15.8 6.7 22.9z" class="selected" data-section="shortside-upper-tier"></path>
                    <path fill="none" d="M-155.3 60.7c-1.9-4.8-3.4-9.9-4.4-15.1l-31.2 3.5c3 7.5 6.5 14.4 10.4 20.9z" data-section="shortside-upper-tier"></path>
                    <path fill="none" d="M-146.9 76.9c-2.9-4.4-5.4-9-7.4-13.8l-24.8 9.2c3.9 6.1 8.1 11.8 12.7 17.1z" data-section="shortside-upper-tier"></path>
                    <path fill="none" d="M-136.2 90.3c-3.4-3.5-6.5-7.3-9.4-11.3l-19.3 12.3c4.6 5.2 9.6 10 14.8 14.4z" data-section="shortside-upper-tier"></path>
                    <path fill="none" d="M-121.8 102.2c-4.5-3-8.7-6.4-12.5-10.1l-13.8 15.2c5 4.1 10.1 7.9 15.4 11.4z" data-section="shortside-upper-tier"></path>
                    <path fill="none" d="M-105.4 110.8c-5-2-9.8-4.5-14.4-7.3l-10.9 16.5c5.4 3.5 11 6.6 16.6 9.5z" data-section="shortside-upper-tier"></path>
                    <path fill="none" d="M-88.6 115.7c-5-.9-9.8-2.2-14.5-3.9l-8.8 18.9c3.5145 1.7325 10.65 5.25 21.3 9.3z" data-section="longside-upper-tier"></path>
                    <path fill="none" d="M-53.8 117.1h-18.7c-4.6 0-9-.4-13.4-1l-2 24.8c11.9 4.4 23.8 7.7 34.3 10.2z" data-section="longside-upper-tier"></path>
                    <path fill="none" d="M-26.8 117.1h-24.3v34.6c9.3 2 16.9 3.5 24.5 4.5z" data-section="longside-upper-tier" data-tags="longside-upper-tier-central"></path>
                    <path fill="none" d="M-1.7 157.7v-40.6h-22.6v39.4c9.7 1.3 17.4.8 21.3 1v.1c0 .1.4.1 1.3.1" data-section="longside-upper-tier" data-tags="longside-upper-tier-central"></path>

                    <!-- VIP Club Level Sections -->
                    <path fill="none" d="M10.5 93.9h12.7v14.4H10.5Z" data-section="vip-club-level" data-tags="club-level-longside"></path>
                    <path fill="none" d="M25.8 93.9h21.4v14.4H25.8Z" data-section="vip-club-level" data-tags="club-level-longside"></path>
                    <path fill="none" d="M49.8 108.3V93.9h20.4v13.9c-.495.0495-1.5.15-2.7.3-1.4.2-2.5.3-3.9.3H49.8Z" data-section="vip-club-level" data-tags="club-level-longside"></path>
                    <path fill="none" d="M72.8 93.7c6.9-.6 13.6-2.3 19.7-5.2l5.5 11.9c-7.7 3.6-16.6 6-25.3 7V93.7Z" data-section="vip-club-level" data-tags="club-level-longside"></path>
                    <path fill="none" d="M94.9 87.4c2.6-1.4 5.1-2.9 7.5-4.6l7.3 11.1c-3 2-6.2 3.9-9.3 5.5z" data-section="vip-club-level" data-tags="club-level-shortside"></path>
                    <path fill="none" d="M104.5 81.2c2.5-2 4.9-4.2 7-6.6l10.1 9.5c-3 3-6.2 5.7-9.7 8.2z" data-section="vip-club-level"></path>
                    <path fill="none" d="M113.2 72.6c2.1-2.5 4-5.2 5.6-8l12.5 7.9c-2.3 3.4-5 6.6-7.9 9.6z" data-section="vip-club-level" data-tags="club-level-shortside"></path>
                    <path fill="none" d="M120.1 62.3c.9405-1.782 2.85-5.4 4.5-11.4l15.5 5.2c-2 5-4.5 9.8-7.4 14.2z" data-section="vip-club-level" data-tags="club-level-shortside"></path>
                    <path fill="none" d="M125.3 48.4c.7-3.2 1.2-6.3 1.4-9.5h18.2c-.8 5.1-2 9.8-3.8 14.8z" data-section="vip-club-level" data-tags="club-level-shortside"></path>
                    <path fill="none" d="M126.8 36.3V20.9h19.4v4.8c0 3.3-.4 6.4-.8 9.7l-.1.9Z" data-section="vip-club-level" data-tags="club-level-shortside"></path>
                    <path fill="none" d="M126.8-4.1h19.4v22.4h-19.4Z" data-section="vip-club-level" data-tags="club-level-shortside"></path>
                    <path fill="none" d="M126.8-27.1h19.4v20.4h-19.4Z" data-section="vip-club-level" data-tags="club-level-shortside"></path>
                    <path fill="none" d="M126.8-29.7v-12.8c0-1.1 0-2-.1-2.9l18.2-2.2c.9 5.1 1.3 9.4 1.3 13.6v4.3Z" data-section="vip-club-level" data-tags="club-level-shortside"></path>
                    <path fill="none" d="M126.4-48.1c-.3-2.9-.7-5.7-1.4-8.5l15.4-7c1.7 4.3 3 8.8 3.9 13.3z" data-section="vip-club-level" data-tags="club-level-shortside"></path>
                    <path fill="none" d="M124.3-59.1c-1.1-3.7-2.6-7.4-4.5-10.9l13.2-8.1c2.5 3.9 4.6 8 6.4 12.2z" data-section="vip-club-level" data-tags="club-level-shortside"></path>
                    <path fill="none" d="M118.5-72.3c-1.5-2.6-3.3-5.1-5.1-7.3l10.4-10.5c2.9 3.1 5.5 6.4 7.8 9.8z" data-section="vip-club-level"></path>
                    <path fill="none" d="M111.69-81.602a61.6 61.6 0 0 0-8.383-7.777l7.777-12.019c3.939 2.727 7.575 5.858 11.009 9.292z" data-section="vip-club-level" data-tags="club-level-shortside"></path>
                    <path fill="none" d="M101.3-90.9c-2.5-1.7-5.1-3.2-7.7-4.5l5.5-12.9c3.5 1.7 6.8 3.5 9.9 5.6z" data-section="vip-club-level" data-tags="club-level-shortside"></path>
                    <path fill="none" d="M91.1-96.7c-6.4-2.8-12.9-4.4-19.3-4.9v-14.3c8.6.9 17.4 3.1 24.9 6.4z" data-section="vip-club-level" data-tags="club-level-longside"></path>
                    <path fill="none" d="M69.2-101.7H47.8v-14.4h21.5Z" data-section="vip-club-level" data-tags="club-level-longside"></path>
                    <path fill="none" d="M23.8-116.1h21.4v14.4H23.8Z" data-section="vip-club-level" data-tags="club-level-longside"></path>
                    <path fill="none" d="M-.2-116.1h21.4v14.4H-.2Z" data-section="vip-club-level" data-tags="club-level-longside"></path>
                    <path fill="none" d="M-24.2-116.1h21.4v14.4h-21.4Z" data-section="vip-club-level" data-tags="club-level-longside"></path>
                    <path fill="none" d="M-49.2-116.1h22.4v14.4h-22.4Z" data-section="vip-club-level" data-tags="club-level-longside"></path>
                    <path fill="none" d="M-73.2-116.2h.4c.7 0 1.3 0 1.9.1.6 0 1.2.1 1.9.1h17.2v14.4h-21.4Z" data-section="vip-club-level" data-tags="club-level-longside"></path>
                    <path fill="none" d="M-99.2-110.7c7.4-2.9 15.1-4.7 23.4-5.4v14.6c-5.8.5-11.7 1.9-17.4 4.3z" data-section="vip-club-level" data-tags="club-level-longside"></path>
                    <path fill="none" d="M-113.1-103.5c3.7-2.4 7.5-4.4 11.4-6.1l6 13.6c-3.2 1.5-6.3 3.2-9.2 5.3z" data-section="vip-club-level" data-tags="club-level-shortside"></path>
                    <path fill="none" d="M-126.2-93.1c3.4-3.3 7.1-6.3 10.9-8.9l8.4 12.9c-2.7 2-5.1 4.3-7.4 6.8z" data-section="vip-club-level" data-tags="club-level-shortside"></path>
                    <path fill="none" d="M-136.5-81c1.2375-1.782 3.75-5.4 8.4-10.2l12 10.9c-2.3 2.7-4.3 5.6-6 8.6z" data-section="vip-club-level" data-tags="club-level-shortside"></path>
                    <path fill="none" d="M-144.7-66.2c1.9-4.4 4.1-8.6 6.7-12.6l14.6 9.4c-1.5 2.9-2.7 5.9-3.7 9z" data-section="vip-club-level" data-tags="club-level-shortside"></path>
                    <path fill="none" d="M-150.2-46.7c.8-5.7 2.3-10.9 4.6-16.8l17.8 5.7c-1 3.6-1.6 7.3-1.8 11.2h-20.6Z" data-section="vip-club-level" data-tags="club-level-shortside"></path>
                    <path fill="none" d="M-151.2-29.7V-34c0-3.9.2-7.4.6-10.1h20.8v14.4Z" data-section="vip-club-level" data-tags="club-level-shortside"></path>
                    <path fill="none" d="M-151.2-27.1h21.4v21.4h-21.4Z" data-section="vip-club-level" data-tags="club-level-shortside"></path>
                    <path fill="none" d="M-151.2-3.1h21.4v21.4h-21.4Z" data-section="vip-club-level" data-tags="club-level-shortside"></path>
                    <path fill="none" d="M-150.2 38.4c-.6-4.1-1-8.4-1-12.7v-4.8h21.4v15.6Z" data-section="vip-club-level" data-tags="club-level-shortside"></path>
                    <path fill="none" d="M-145.6 55.6c-1.8-4.7-3.3-9.6-4.2-14.6l20.1-1.8c.2 3.6.7 7 1.5 10.3z" data-section="vip-club-level" data-tags="club-level-shortside"></path>
                    <path fill="none" d="M-138 70.5c-2.6-4-4.8-8.1-6.7-12.4l17.2-6.1c1 3.2 2.8 7.5 3.5 9.1z" data-section="vip-club-level" data-tags="club-level-shortside"></path>
                    <path fill="none" d="M-126.8 84.1a82 82 0 0 1-9.7-11.5l13.8-9.3c1.8 3.4 4 6.6 6.5 9.5z" data-section="vip-club-level" data-tags="club-level-shortside"></path>
                    <path fill="none" d="M-114 94.5c-3.9-2.5-7.6-5.4-11-8.6l10.5-11c2.5 2.7 5.3 5.2 8.2 7.4z" data-section="vip-club-level" data-tags="club-level-shortside"></path>
                    <path fill="none" d="M-100.7 101.6c-3.8-1.6-7.5-3.5-11-5.6l7.7-12.1c2.9 2 6 3.7 9.1 5.1z" data-section="vip-club-level" data-tags="club-level-shortside"></path>
                    <path fill="none" d="M-75.8 107.7c-7.8-.6-14.9-2.2-22.4-5.1l5.8-12.6c5.3 2.1 10.9 3.3 16.7 3.8z" data-section="vip-club-level" data-tags="club-level-longside"></path>
                    <path fill="none" d="M-69 108.3c-.9 0-1.6-.1-2.5-.2-.6-.1-1.1-.1-1.8-.2v-14h21.4v14.4Z" data-section="vip-club-level" data-tags="club-level-longside"></path>
                    <path fill="none" d="M-49.2 93.9h21.4v14.4h-21.4Z" data-section="vip-club-level" data-tags="club-level-longside"></path>
                    <path fill="none" d="M-25.2 93.9h11.4v14.4h-11.4Z" data-section="vip-club-level" data-tags="club-level-longside"></path>

                    <!-- Lower Tier Sections -->
                    <path fill="none" d="M-.2 91.3V77.9h3v-16h18.4v29.4Z" data-section="longside-lower-tier" data-tags="longside-lower-tier-central"></path>
                    <path fill="none" d="M23.8 61.9h19.4v29.4H23.8Z" data-section="longside-lower-tier" data-tags="longside-lower-tier-central"></path>
                    <path fill="none" d="M45.8 91.3V61.9h19.4v29.4Z" data-section="longside-lower-tier"></path>
                    <path fill="none" d="M67.8 91.3V61.8c3.8-.4 7.5-1.5 11-3.3l12.6 27.7c-7.4 3.4-15.3 5.1-23.5 5.1z" data-section="longside-lower-tier"></path>
                    <path fill="none" d="M81.1 57.1c3-1.9 5.6-4.2 7.8-7l23.7 19.1c-5 6.6-11.5 12-18.8 15.8z" data-section="shortside-lower-tier"></path>
                    <path fill="none" d="M90.5 47.9c2.1-3.2 3.5-6.6 4.3-10.4l28.5 6.6c-1.3 8.1-4.5 16-9.2 22.8z" data-section="shortside-lower-tier"></path>
                    <path fill="none" d="M95.4 35c.2-1.2.4-2.5.4-3.8V18.9h28.4v16.3c0 2.1-.1 4.3-.4 6.3z" data-section="shortside-lower-tier"></path>
                    <path fill="none" d="M95.8-2.1h28.4v18.4H95.8Z" data-section="shortside-lower-tier"></path>
                    <path fill="none" d="M95.8-25.1h28.4v20.4H95.8Z" data-section="shortside-lower-tier"></path>
                    <path fill="none" d="M124.2-42.5c0-2.2-.2-4.3-.4-6.1L95.3-42c.2 1.4.4 2.9.4 4.5v1.4h28.4Z" data-section="away-fans-section" data-tags="shortside-lower,shortside-upper"></path>
                    <path fill="none" d="M94.7-44.5c-.7-2.8-1.7-5.4-3.1-7.9l24.5-19c3.8 6.2 6.3 13.1 7.4 20.3z" data-section="away-fans-section" data-tags="shortside-lower,shortside-upper"></path>
                    <path fill="none" d="M87.4-58.1a31 31 0 0 0-7.2-5.8L92.5-93c8.9 4.4 16.5 11 22.1 19.3L103.4-65l-2.8-3.5Z" data-section="away-fans-section" data-tags="shortside-lower,shortside-upper"></path>
                    <path fill="none" d="M77.8-65c-3.9-1.8-8.2-2.7-12.8-2.7h-3.2v-31.4h6.1c7.3 0 14.7 1.6 22.2 4.9z" data-section="away-fans-section" data-tags="shortside-lower,shortside-upper"></path>
                    <path fill="none" d="M45.8-99.1h13.4v31.4H45.8Z" data-section="longside-lower-tier"></path>
                    <path fill="none" d="M23.8-99.1h19.4v31.4H23.8Z" data-section="longside-lower-tier" data-tags="longside-lower-tier-central"></path>
                    <path fill="none" d="M.8-99.1h20.4v31.4H.8Z" data-section="longside-lower-tier" data-tags="longside-lower-tier-central"></path>
                    <path fill="none" d="M-21.2-99.1h19.4v31.4h-19.4Z" data-section="longside-lower-tier" data-tags="longside-lower-tier-central"></path>
                    <path fill="none" d="M-43.2-99.1h19.4v31.4h-19.4Z" data-section="longside-lower-tier" data-tags="longside-lower-tier-central"></path>
                    <path fill="none" d="M-66.2-99.1h20.4v31.4h-20.4Z" data-section="longside-lower-tier"></path>
                    <path fill="none" d="M-92.1-94.8c7-2.8 14-4.3 21-4.3h2.4v31.4c-4 .1-7.5.7-10.6 1.9z" data-section="longside-lower-tier"></path>
                    <path fill="none" d="M-115.4-77c5.5-7.1 12.7-12.8 20.9-16.5l12.7 28.8c-3.5 1.8-6.7 4.2-9.3 7.2z" data-section="shortside-lower-tier"></path>
                    <path fill="none" d="M-126.6-51.6c1.4-8.4 4.7-16.5 9.7-23.5l24.2 19.3a31 31 0 0 0-5.1 10.6Z" data-section="shortside-lower-tier"></path>
                    <path fill="none" d="M-127.2-27.7v-14.8c0-2.6.1-4.7.3-6.7l28.6 6.3a35 35 0 0 0-.5 5.4v9.8Z" data-section="shortside-lower-tier"></path>
                    <path fill="none" d="M-127.2-25.1h28.4v20.4h-28.4Z" data-section="shortside-lower-tier"></path>
                    <path fill="none" d="M-127.2-2.1h28.4v19.4h-28.4Z" data-section="shortside-lower-tier"></path>
                    <path fill="none" d="M-126.8 42.7c-.3-2.3-.4-4.8-.4-7.5V19.9h28.4v11.3c0 1.4.1 2.9.4 4.7z" data-section="shortside-lower-tier"></path>
                    <path fill="none" d="M-116.2 68.6c-5.1-6.9-8.6-14.9-10.2-23.3l28.6-6.8c.9 3.8 2.6 7.5 5 10.6z" data-section="shortside-lower-tier"></path>
                    <path fill="none" d="M-93.8 86.5c-8-3.6-15.2-9-20.8-15.8l23.4-19.5c2.8 3.2 6.2 5.8 10 7.6z" data-section="shortside-lower-tier"></path>
                    <path fill="none" d="M-71.2 91.3c-7.1 0-13.9-1.2-20.2-3.7l12.6-27.7c3.4 1.3 6.8 1.9 10.1 2l.1 29.4Z" data-section="longside-lower-tier"></path>
                    <path fill="none" d="m-65.9 91.3-.1-29.4h20.2v29.4Z" data-section="longside-lower-tier"></path>
                    <path fill="none" d="M-43.2 61.9h19.4v29.4h-19.4Z" data-section="longside-lower-tier" data-tags="longside-lower-tier-central"></path>
                    <path fill="none" d="M-21.2 91.3V61.9h15.4v16h3v13.4Z" data-section="longside-lower-tier" data-tags="longside-lower-tier-central"></path>
                </g>
                <g id="text" opacity="1">
                    <text class="text-4" transform="matrix(1 0 0 1 -32.5281 -167.2454)">EAST STAND</text>
                    <text class="text-4" transform="matrix(1 0 0 1 -29.9153 171.5847)">WEST STAND</text>
                    <text class="text-4" transform="matrix(0.0068 -0.9999 0.9999 0.0068 -208.0807 32.779)">NORTH STAND</text>
                    <text class="text-4" transform="matrix(0.0068 0.9999 -0.9999 0.0068 204.3654 -41.9867)">SOUTH STAND</text>
                </g>
                <g id="block-labels"></g>
            </svg>