<svg viewBox="-495 -375 991 750" xmlns="http://www.w3.org/2000/svg">
    <g id="pitch" opacity="1">
        <g id="football-pitch" opacity="1" transform="matrix(2.3 0 0 2.3 -42 -59.7042)">
            <path fill="#BCCD9A" d="M-100-63.5h200v127h-200Z"></path>
            <path fill="none" stroke="#fff" d="M-97.4-60.7H97.4V60.7H-97.4Z"></path>
            <path fill="none" stroke="gray" d="M-98.8-62.3H98.8V62.3H-98.8Z"></path>
            <path fill="none" stroke="#fff"
                d="M18.2 0c0 10.0516-8.1484 18.2-18.2 18.2S-18.2 10.0516-18.2 0-10.0516-18.2 0-18.2 18.2-10.0516 18.2 0Z">
            </path>
            <path fill="#fff" stroke="#fff" d="M0-61.75v123.5"></path>
            <path fill="#fff" stroke="#fff" d="M-97-41.5h40"></path>
            <path fill="#fff" stroke="#fff" d="M-57-41.5v83"></path>
            <path fill="#fff" stroke="#fff" d="M-57 41.5h-40"></path>
            <path fill="#fff" stroke="#fff" d="M-97-20.3h16"></path>
            <path fill="#fff" stroke="#fff" d="M-81-20.3v40.6"></path>
            <path fill="#fff" stroke="#fff" d="M-81 20.3h-16"></path>
            <path fill="#fff" stroke="#fff" d="M97-41.5H57"></path>
            <path fill="#fff" stroke="#fff" d="M57-41.5v83"></path>
            <path fill="#fff" stroke="#fff" d="M57 41.5h40"></path>
            <path fill="#fff" stroke="#fff" d="M97-20.3H81"></path>
            <path fill="#fff" stroke="#fff" d="M81-20.3v40.6"></path>
            <path fill="#fff" stroke="#fff" d="M81 20.3h16"></path>
        </g>
    </g>
    <g id="shapes" opacity="1">
        <path fill="none" stroke="#000" d="M-362.5-86h-109v50h58v-12h19v6h32Z" data-block="t3"
            data-section="shortside-upper-tier"></path>
        <path fill="none" stroke="#000" d="M-413.5-32h-58v51h109v-45h-32v6h-19Z" data-block="t2"
            data-section="shortside-upper-tier"></path>
        <path fill="none" stroke="#000" d="M-362.5 23h-109v51h109Z" data-block="t1" data-section="shortside-upper-tier">
        </path>
        <path fill="none" stroke="#000" d="M360.5 34h-52v21h-101v26l13 13h84V73h56Z" data-block="l7"
            data-section="shortside-lower-tier"></path>
        <path fill="none" stroke="#000" d="M360.5 77h-52v21h-83l20 21h115Z" data-block="l8"
            data-section="shortside-lower-tier"></path>
        <path fill="none" stroke="#000" d="M468.5-297h-104v67h41v10h63Z" data-block="k1"
            data-section="shortside-upper-tier"></path>
        <path fill="none" stroke="#000" d="M468.5-159v-57h-67v-10h-37v57h41v10Z" data-block="k2"
            data-section="shortside-upper-tier"></path>
        <path fill="none" stroke="#000" d="M468.5-97v-57h-67v-10h-37v57h41v10Z" data-block="k3"
            data-section="shortside-upper-tier"></path>
        <path fill="none" stroke="#000" d="M468.5-35v-57h-67v-10h-37v57h41v10Z" data-block="k4"
            data-section="shortside-upper-tier"></path>
        <path fill="none" stroke="#000" d="M401.5-40h-37v66h37V16h67v-46h-67Z" data-block="k5"
            data-section="shortside-upper-tier"></path>
        <path fill="none" stroke="#000" d="M468.5 69V20h-63v10h-41v49h37V69Z" data-block="k6"
            data-section="shortside-upper-tier"></path>
        <path fill="none" stroke="#000" d="M468.5 78v-5h-63v10h-41v62Z" class="selected" data-block="k7"
            data-section="shortside-upper-tier"></path>
        <path fill="none" stroke="#000" d="M185.5 305v-34h-53v36h-28v46h16Z" data-block="a1"
            data-section="longside-upper-tier"></path>
        <path fill="none" stroke="#000" d="M128.5 271h-55v36h-29v46h56v-50h28Z" data-block="a2"
            data-section="longside-upper-tier"></path>
        <path fill="none" stroke="#000" d="M220.5-266h-74v53h53l21-30Z" data-block="m5"
            data-section="longside-lower-tier"></path>
        <path fill="none" stroke="#000" d="m269.5-274-19 40h54v-21h56v-19Z" data-block="l1"
            data-section="shortside-lower-tier"></path>
        <path fill="none" stroke="#000" d="M360.5-197v-54h-52v21h-72l-29 42v11h97v-20Z" data-block="l2"
            data-section="shortside-lower-tier"></path>
        <path fill="none" stroke="#000" d="M360.5-141v-52h-52v20h-101v53h97v-21Z" data-block="l3"
            data-section="shortside-lower-tier"></path>
        <path fill="none" stroke="#000" d="M360.5-84v-52h-52v20h-101v53h97v-21Z" data-block="l4"
            data-section="shortside-lower-tier"></path>
        <path fill="none" stroke="#000" d="M360.5-26.712V-78h-52v19.726h-101V-6h97v-20.712Z" data-block="l5"
            data-section="shortside-lower-tier"></path>
        <path fill="none" stroke="#000" d="M360.5 30.288V-21h-52v19.726h-101V51h97V30.288Z" data-block="l6"
            data-section="shortside-lower-tier"></path>
        <path fill="none" stroke="#000" d="M-28.5-353h-27v46h-14v19h54v-19h-13Z" data-block="p6"
            data-section="longside-upper-tier"></path>
        <path fill="none" stroke="#000" d="M74.5-353h-48v42h13v23h48v-19h-13Z" data-block="p4"
            data-section="longside-upper-tier"></path>
        <path fill="none" stroke="#000" d="M124.5-353h-46v42h13v23h46v-19h-13Z" data-block="p3"
            data-section="longside-upper-tier"></path>
        <path fill="none" stroke="#000" d="M175.5-353h-47v42h13v23h47v-19h-13Z" data-block="p2"
            data-section="longside-upper-tier"></path>
        <path fill="none" stroke="#0C0303" d="M220.5-353h-41v42h13v23h28Z" data-block="p1"
            data-section="longside-upper-tier"></path>
        <path fill="none" stroke="#000" d="M220.5-284h-527v14h527Z" data-section="vip-hospitality-package"></path>
        <path fill="none" stroke="#000" d="M-170.5-266h-84v53h84Z" data-block="q2" data-section="away-fans-section">
        </path>
        <path fill="none" stroke="#000" d="M-108.5-266h-58v53h58Z" data-block="q3" data-section="away-fans-section">
        </path>
        <path fill="none" stroke="#000" d="M-45.5-266h-59v53h59Z" data-block="m1" data-section="longside-lower-tier">
        </path>
        <path fill="none" stroke="#000" d="M17.5-266h-59v53h59Z" data-block="m2" data-section="longside-lower-tier">
        </path>
        <path fill="none" stroke="#000" d="M80.5-266h-57v53h57Z" data-block="m3" data-section="longside-lower-tier">
        </path>
        <path fill="none" stroke="#000" d="M142.5-266h-58v53h58Z" data-block="m4" data-section="longside-lower-tier">
        </path>
        <path fill="none" stroke="#000" d="M-258.5-266h-48v32l31 21h17Z" data-block="q1"
            data-section="away-fans-section"></path>
        <path fill="none" stroke="#000" d="M22.5-353h-47v42h13v23h47v-19h-13Z" data-block="p5"
            data-section="longside-upper-tier"></path>
        <path fill="none" stroke="#000" d="M-268.5-353h-38v65h25v-23h13Z" data-block="p11"
            data-section="away-fans-section"></path>
        <path fill="none" stroke="#000" d="M-216.5-353h-48v46h-13v19h48v-23h13Z" data-block="p10"
            data-section="away-fans-section"></path>
        <path fill="none" stroke="#000" d="M-148.5-353h-64v46h-13v19h64v-23h13Z" data-section="away-fans-section">
        </path>
        <path fill="none" stroke="#000" d="M-110.5-353h-34v46h-13v19h34v-23h13Z" data-block="p8"
            data-section="longside-upper-tier"></path>
        <path fill="none" stroke="#000" d="M-59.5-353.4084h-47v46h-13v19h46v-23h14Z" data-block="p7"
            data-section="longside-upper-tier"></path>
        <path fill="none" stroke="#000" d="M69.5 271h-58v36h-25v46h54v-50h29Z" data-block="a3"
            data-section="longside-upper-tier"></path>
        <path fill="none" stroke="#000" d="M7.5 303v-32h-87v32h26v50h36v-50Z" data-block="a4"
            data-section="longside-upper-tier"></path>
        <path fill="none" stroke="#000" d="M-83.5 271h-52v32h28v50h50v-46h-26Z" data-block="a5"
            data-section="longside-upper-tier"></path>
        <path fill="none" stroke="#000" d="M-139.5 307v-36h-55v32h28v50h55v-46Z" data-block="a6"
            data-section="longside-upper-tier"></path>
        <path fill="none" stroke="#000" d="M-198.5 271h-59v32h29v50h58v-46h-28Z" data-block="a7"
            data-section="longside-upper-tier"></path>
        <path fill="none" stroke="#000" d="M-261.5 271h-68v33l84 49h13v-46h-29Z" data-block="a8"
            data-section="longside-upper-tier"></path>
        <path fill="none" stroke="#000" d="M-109.5 253h-220v14h220Z" data-section="vip-hospitality-package"></path>
        <path fill="none" stroke="#000" d="M23.5 253h-129v14h129Z" data-section="vip-hospitality-package"></path>
        <path fill="none" stroke="#000" d="M185.5 253h-158v14h158Z" data-section="vip-hospitality-package"></path>
        <path fill="none" stroke="#000" d="M-295.5 173h-34v76h71v-49h-37Z" data-block="b7"
            data-section="longside-upper-tier"></path>
        <path fill="none" stroke="#000" d="M-234.5 173h-57v23h37v53h56v-49h-36Z" data-block="b6"
            data-section="longside-upper-tier"></path>
        <path fill="none" stroke="#000" d="M-176.5 173h-54v23h36v53h55v-49h-37Z" data-block="b5"
            data-section="longside-upper-tier"></path>
        <path fill="none" stroke="#000" d="M30.5 173h-203v23h37v53h166Z" data-section="vip-hospitality-package"></path>
        <path fill="none" stroke="#000" d="M100.5 173h-66v76h29v-53h37Z" data-block="b3"
            data-section="longside-upper-tier"></path>
        <path fill="none" stroke="#000" d="M161.5 173h-57v27h-37v49h57v-53h37Z" data-block="b2"
            data-section="longside-upper-tier"></path>
        <path fill="none" stroke="#000" d="M230.5 173h-65v27h-37v49h57v-46Z" data-block="b1"
            data-section="longside-upper-tier"></path>
        <path fill="none" stroke="#000" d="m-296.5 155-19-13-8 8.5 23 18.5h541v-14Z"></path>
        <path fill="none" stroke="#000" d="M207.5 95H177l-.5 56h64v-15Z" data-block="l9"
            data-section="longside-lower-tier"></path>
        <path fill="none" stroke="#000" d="M172.5 95h-50v56h50Z" data-block="c1" data-section="longside-lower-tier">
        </path>
        <path fill="none" stroke="#000" d="M118.5 95h-55v56h55Z" data-block="c2" data-section="longside-lower-tier">
        </path>
        <path fill="none" stroke="#000" d="M59.5 95h-53v56h53Z" data-block="c3" data-section="longside-lower-tier">
        </path>
        <path fill="none" stroke="#000" d="M2.5 95h-44v56h44Z" data-block="c4" data-section="longside-lower-tier">
        </path>
        <path fill="none" stroke="#000" d="M-45.5 95h-46v56h46Z" data-block="c5" data-section="longside-lower-tier">
        </path>
        <path fill="none" stroke="#000" d="M-95.5 95h-53v56h53Z" data-block="c6" data-section="longside-lower-tier">
        </path>
        <path fill="none" stroke="#000" d="M-152.5 95h-53v56h53Z" data-block="c6" data-section="longside-lower-tier">
        </path>
        <path fill="none" stroke="#000" d="M-215.5 95h-36v56h36Z" data-block="c7" data-section="longside-lower-tier">
        </path>
        <path fill="none" stroke="#000" d="M-255.5 151V95H-275l-38.5 40 21 16Z" data-block="c9"
            data-section="longside-lower-tier"></path>
        <path fill="none" stroke="#000" d="M-277.696 76H-337.5l20 50 41-42v-5h-1Z" data-block="r7"
            data-section="shortside-lower-tier"></path>
        <path fill="none" stroke="#000" d="M-278.5 24h-60v48h60Z" data-block="r6" data-section="shortside-lower-tier">
        </path>
        <path fill="none" stroke="#000" d="M-278.5-29h-60v49h60Z" data-block="r5" data-section="shortside-lower-tier">
        </path>
        <path fill="none" stroke="#000" d="M-278.5-134h-60v47h60v-32h-28v-6h28Z" data-block="r3"
            data-section="shortside-lower-tier"></path>
        <path fill="none" stroke="#000" d="M-278.5-187h-60v49h60Z" data-block="r2" data-section="shortside-lower-tier">
        </path>
        <path fill="none" stroke="#000" d="M-278.5-191h-60v-16l26-18 34 24Z" data-block="r1"
            data-section="shortside-lower-tier"></path>
        <path fill="none" stroke="#000" d="M-343.5-196h-13V74h13Z" data-section="vip-hospitality-package"></path>
        <path fill="none" stroke="#000" d="M-362.5-196h-109v51h109Z" data-block="t5"
            data-section="shortside-upper-tier"></path>
        <path fill="none" stroke="#000" d="M-362.5-141h-109v51h109Z" data-block="t4"
            data-section="shortside-upper-tier"></path>
        <path fill="none" stroke="#000" d="M-278.5-83h-60v50h60Z" data-block="r4" data-section="shortside-lower-tier">
        </path>
    </g>
    <g id="text" opacity="1"><text class="text-1" transform="matrix(1 0 0 1 -94.3169 -273.0563)">Executive
            Boxes</text><text class="text-1" transform="matrix(1 0 0 1 62.7958 263.8592)">Executive Boxes</text><text
            class="text-1" transform="matrix(1 0 0 1 -260.1056 263.8592)">Executive boxes</text><text class="text-1"
            transform="matrix(-0.0062 -0.9999 0.9999 -0.0062 -347.2039 -25.3544)">Executive Boxes</text><text
            class="text-1" transform="matrix(1 0 0 1 -89.0423 219.3803)">Vip Boxes</text><text class="text-2"
            transform="matrix(0.0008 -0.9999 0.9999 0.0008 -478.5273 -17.6675)">NORTH STAND</text><text class="text-2"
            transform="matrix(1 0 0 1 -126.0423 367.5634)">TRINITY ROAD STAND</text><text class="text-2"
            transform="matrix(0.0008 0.9999 -0.9999 0.0008 476.4696 -127.1563)">HOLTE END</text><text class="text-2"
            transform="matrix(1 0 0 1 -107.7042 -358.155)">DOUG ELLIS STAND</text><text class="text-1"
            transform="matrix(1 0 0 1 -286.4859 -240.845)">Q1</text><text class="text-1"
            transform="matrix(1 0 0 1 259.3169 -87.6197)">L4</text><text class="text-1"
            transform="matrix(1 0 0 1 259.0916 -145.2254)">L3</text><text class="text-1"
            transform="matrix(1 0 0 1 258.8803 -199.5211)">L2</text><text class="text-1"
            transform="matrix(1 0 0 1 287.2606 -251.4084)">L1</text><text class="text-1"
            transform="matrix(1 0 0 1 174.2606 -240.2113)">M5</text><text class="text-1"
            transform="matrix(1 0 0 1 108.4718 -239.5493)">M4</text><text class="text-1"
            transform="matrix(1 0 0 1 47.5 -239.324)">M3</text><text class="text-1"
            transform="matrix(1 0 0 1 -16.8099 -240.6197)">M2</text><text class="text-1"
            transform="matrix(1 0 0 1 -81.9648 -240.324)">M1</text><text class="text-1"
            transform="matrix(1 0 0 1 -143.6408 -240.324)">Q3</text><text class="text-1"
            transform="matrix(1 0 0 1 -218.6972 -240.1408)">Q2</text><text class="text-1"
            transform="matrix(1 0 0 1 321.9225 106.338)">L8</text><text class="text-1"
            transform="matrix(1 0 0 1 261.2465 72.5352)">L7</text><text class="text-1"
            transform="matrix(1 0 0 1 261.0634 28.2394)">L6</text><text class="text-1"
            transform="matrix(1 0 0 1 260.7253 -30.986)">L5</text><text class="text-1"
            transform="matrix(1 0 0 1 197.2042 128.6479)">L9</text><text class="text-1"
            transform="matrix(1 0 0 1 401.0704 102.7746)">K7</text><text class="text-1"
            transform="matrix(1 0 0 1 420.0845 50.1127)">K6</text><text class="text-1"
            transform="matrix(1 0 0 1 420.4225 -5.6338)">K5</text><text class="text-1"
            transform="matrix(1 0 0 1 417.9014 -64.6056)">K4</text><text class="text-1"
            transform="matrix(1 0 0 1 416.0845 -127.5775)">K3</text><text class="text-1"
            transform="matrix(1 0 0 1 417.1972 -187.7324)">K2</text><text class="text-1"
            transform="matrix(1 0 0 1 417.0845 -256.0845)">K1</text><text class="text-1"
            transform="matrix(1 0 0 1 -130.2817 -323.831)">P8</text><text class="text-1"
            transform="matrix(1 0 0 1 -47.1831 -320.7887)">P6</text><text class="text-1"
            transform="matrix(1 0 0 1 -3.4507 -325.9437)">P5</text><text class="text-1"
            transform="matrix(1 0 0 1 48.8873 -325.4225)">P4</text><text class="text-1"
            transform="matrix(1 0 0 1 102.2958 -326.5352)">P3</text><text class="text-1"
            transform="matrix(1 0 0 1 153.1127 -324.9859)">P2</text><text class="text-1"
            transform="matrix(1 0 0 1 201.7042 -325.4648)">P1</text><text class="text-1"
            transform="matrix(1 0 0 1 -290.5493 -321.3098)">P11</text><text class="text-1"
            transform="matrix(1 0 0 1 -242.5493 -321.6056)">P10</text><text class="text-1"
            transform="matrix(1 0 0 1 -182.986 -323.4225)">P9</text><text class="text-1"
            transform="matrix(1 0 0 1 -83.3944 -325.4648)">P7</text><text class="text-1"
            transform="matrix(1 0 0 1 -314.0634 94.845)">R7</text><text class="text-1"
            transform="matrix(1 0 0 1 -315.4718 49.5493)">R6</text><text class="text-1"
            transform="matrix(1 0 0 1 -316.838 -4.0423)">R5</text><text class="text-1"
            transform="matrix(1 0 0 1 -317.5423 -53.8592)">R4</text><text class="text-1"
            transform="matrix(1 0 0 1 -316.7676 -104.6338)">R3</text><text class="text-1"
            transform="matrix(1 0 0 1 -317.3592 -157.5634)">R2</text><text class="text-1"
            transform="matrix(1 0 0 1 -317.0634 -202.1127)">R1</text><text class="text-1"
            transform="matrix(1 0 0 1 -426.6972 -162.7887)">T5</text><text class="text-1"
            transform="matrix(1 0 0 1 -425.1056 -110.5352)">T4</text><text class="text-1"
            transform="matrix(1 0 0 1 -424.2183 -58.493)">T3</text><text class="text-1"
            transform="matrix(1 0 0 1 -423.1479 -1.1127)">T2</text><text class="text-1"
            transform="matrix(1 0 0 1 -422.0352 50.7042)">T1</text><text class="text-1"
            transform="matrix(1 0 0 1 -298.979 224.1972)">B7</text><text class="text-1"
            transform="matrix(1 0 0 1 -232.8944 225.1972)">B6</text><text class="text-1"
            transform="matrix(1 0 0 1 -174.1479 223.493)">B5</text><text class="text-1"
            transform="matrix(1 0 0 1 42.162 223.676)">B3</text><text class="text-1"
            transform="matrix(1 0 0 1 92.162 224.9437)">B2</text><text class="text-1"
            transform="matrix(1 0 0 1 151.1338 224.7606)">B1</text><text class="text-1"
            transform="matrix(1 0 0 1 150.5704 297.7747)">A1</text><text class="text-1"
            transform="matrix(1 0 0 1 -294.2747 296.5916)">A8</text><text class="text-1"
            transform="matrix(1 0 0 1 -205.3169 326.0563)">A7</text><text class="text-1"
            transform="matrix(1 0 0 1 -146.2042 325.3098)">A6</text><text class="text-1"
            transform="matrix(1 0 0 1 -88.7676 325.5493)">A5</text><text class="text-1"
            transform="matrix(1 0 0 1 -41.2606 325.479)">A4</text><text class="text-1"
            transform="matrix(1 0 0 1 9.0634 326.8732)">A3</text><text class="text-1"
            transform="matrix(1 0 0 1 70.7394 324.8732)">A2</text><text class="text-1"
            transform="matrix(1 0 0 1 140.5966 127.8487)">C1</text><text class="text-1"
            transform="matrix(1 0 0 1 84.4118 127.79)">C2</text><text class="text-1"
            transform="matrix(1 0 0 1 28.1092 127.7479)">C3</text><text class="text-1"
            transform="matrix(1 0 0 1 -25.1513 128.689)">C4</text><text class="text-1"
            transform="matrix(1 0 0 1 -74.311 127.9076)">C5</text><text class="text-1"
            transform="matrix(1 0 0 1 -129.1513 127.2689)">C6</text><text class="text-1"
            transform="matrix(1 0 0 1 -185.2521 127.2689)">C7</text><text class="text-1"
            transform="matrix(1 0 0 1 -240.916 127.21)">C8</text><text class="text-1"
            transform="matrix(1 0 0 1 -282.9748 127.1513)">C9</text></g>
</svg>